<svg width="43" height="43" viewBox="0 0 43 43" fill="none" xmlns="http://www.w3.org/2000/svg">
<path fill-rule="evenodd" clip-rule="evenodd" d="M12.7464 5.19678L12.6512 5.20906L11.2077 5.39335L9.45387 5.61449C8.38523 5.73964 7.39335 6.23244 6.64811 7.0085C5.90287 7.78456 5.45064 8.79559 5.36887 9.86842C4.7317 18.7426 4.7317 27.6511 5.36887 36.5253C5.44419 37.6061 5.90356 38.6243 6.66398 39.396C7.42441 40.1677 8.43575 40.642 9.5153 40.7332C17.7344 41.4212 25.2594 41.4212 33.4755 40.7332C34.5551 40.642 35.5664 40.1677 36.3268 39.396C37.0873 38.6243 37.5466 37.6061 37.6219 36.5253C38.259 27.6511 38.259 18.7426 37.6219 9.86842C37.5403 8.79605 37.0885 7.78539 36.3439 7.0094C35.5993 6.2334 34.6081 5.7403 33.54 5.61449L31.7893 5.39335L30.3457 5.20906L30.2474 5.19678H12.7464Z" fill="#B0E5F0"/>
<path d="M13.8214 5.78045C13.8206 5.25129 13.9242 4.72717 14.1262 4.2381C14.3283 3.74903 14.6248 3.30461 14.9988 2.93029C15.3728 2.55598 15.817 2.25912 16.306 2.05671C16.7949 1.85431 17.3189 1.75033 17.8481 1.75073H25.1458C26.2149 1.75073 27.2403 2.17545 27.9963 2.93146C28.7523 3.68747 29.177 4.71283 29.177 5.78198C29.177 6.85114 28.7523 7.8765 27.9963 8.63251C27.2403 9.38851 26.2149 9.81323 25.1458 9.81323H17.8511C17.3214 9.81364 16.7968 9.7096 16.3074 9.50708C15.8179 9.30455 15.3732 9.00752 14.9986 8.63296C14.6241 8.2584 14.327 7.81367 14.1245 7.32421C13.922 6.83474 13.821 6.31015 13.8214 5.78045Z" fill="#00B4D8"/>
</svg>
